<?xml version="1.0" encoding="UTF-8"?>
<svg xmlns="http://www.w3.org/2000/svg" version="1.1" viewBox="0 0 1920 1080">
  <defs>
    <style>
      .cls-1 {
        fill: #fff;
      }
    </style>
  </defs>
  <!-- Generator: Adobe Illustrator 28.7.1, SVG Export Plug-In . SVG Version: 1.2.0 Build 142)  -->
  <g>
    <g id="Layer_1">
      <g>
        <g>
          <polygon class="cls-1" points="886 556.6 999.2 556.6 999.2 520.7 886 520.7 886 469.6 1004.7 469.6 1004.7 432.8 844.2 432.8 844.2 432.8 844.2 647.3 1007.3 647.3 1007.3 610.2 886 610.2 886 556.6"/>
          <polygon class="cls-1" points="1071.9 432.8 1029.6 432.8 1029.6 647.3 1182.8 647.3 1182.8 608.4 1071.9 608.4 1071.9 432.8"/>
          <polygon class="cls-1" points="711 593.3 645.5 432.8 599 432.8 687.8 647.3 688.5 647.3 733 647.3 735.2 647.3 822.7 432.8 777.5 432.8 711 593.3"/>
          <polygon class="cls-1" points="1338.9 432.8 1294.7 432.8 1292.4 432.8 1205.1 647.3 1250.2 647.3 1316.7 486.8 1382.1 647.3 1428.7 647.3 1339.8 432.8 1338.9 432.8"/>
          <path class="cls-1" d="M1577.2,572.2c16.5-4.3,29.4-12.4,38.6-24.3,9.2-11.9,13.8-26.3,13.8-43.5s-3.1-26.7-9.5-37.6c-6.3-11-15.3-19.3-26.8-25.3-11.6-5.9-25-8.9-40.3-8.9h-102v214.5h42v-176.8h57.3c11.9,0,21,3,27.6,9.1,6.5,6,9.8,14.4,9.8,25.3s-3.2,19.2-9.8,25.2c-6.5,5.9-15.7,8.9-27.6,8.9h-48.4l87,108.6h51.8l-63.4-75h0v-.2h0Z"/>
        </g>
        <g>
          <polygon class="cls-1" points="412.6 540 431 559.2 449.2 540 431 520.8 412.6 540"/>
          <path class="cls-1" d="M422,463.4c13.4-14.1,17-34,9.4-51.9-5.1-11.9-14.2-20.7-25.5-25.4-11.3,4.6-20.4,13.5-25.5,25.4-7.7,17.9-4.1,37.8,9.4,51.9l16.1,16.9,16.1-16.9Z"/>
          <polygon class="cls-1" points="387.5 566.3 405.9 585.5 424.2 566.3 405.9 547.1 387.5 566.3"/>
          <path class="cls-1" d="M440.4,407.7c9.2,21.5,4.9,45.5-11.3,62.4l-16.4,17.3,18.3,19.2,41-43c13.5-14.1,17.1-34.1,9.4-52-6.7-15.6-20.2-26-36.5-28.5h-24.3c8.5,6,15.4,14.4,19.8,24.6Z"/>
          <path class="cls-1" d="M490.2,407.8c9.3,21.6,4.9,45.6-11.3,62.6l-41.3,43.3,18.3,19.2,62.4-65.4c14.1-14.8,17.9-35.7,9.8-54.5-7-16.3-21.3-27.3-38.3-29.9h-19.5c8.6,6,15.5,14.4,19.9,24.7h0Z"/>
          <path class="cls-1" d="M330.5,411.7c-7.7,18-4.1,37.9,9.4,52l41,43,18.3-19.2-16.4-17.3c-16.2-17-20.5-40.9-11.3-62.4,4.4-10.2,11.3-18.6,19.8-24.6h-24.3c-16.2,2.5-29.8,13-36.5,28.5Z"/>
          <polygon class="cls-1" points="380.9 520.8 362.5 540 380.9 559.2 399.1 540 380.9 520.8"/>
          <polygon class="cls-1" points="424.2 513.7 405.9 494.5 387.5 513.7 405.9 532.9 424.2 513.7"/>
          <path class="cls-1" d="M481.2,668.3c7.7-18,4.1-37.9-9.4-52l-41-43-18.3,19.2,16.4,17.3c16.2,17,20.5,40.9,11.3,62.4-4.4,10.2-11.3,18.6-19.8,24.6h24.3c16.2-2.5,29.8-13,36.5-28.5Z"/>
          <path class="cls-1" d="M528.2,667c8.1-18.8,4.3-39.7-9.8-54.5l-62.4-65.4-18.3,19.2,41.3,43.3c16.2,17,20.5,41,11.3,62.6-4.4,10.3-11.3,18.7-19.9,24.7h19.5c17-2.6,31.3-13.5,38.3-29.9h0Z"/>
          <path class="cls-1" d="M389.8,616.6c-13.4,14.1-17,34-9.4,51.9,5.1,11.9,14.2,20.7,25.5,25.4,11.3-4.6,20.4-13.5,25.5-25.4,7.7-17.9,4.1-37.8-9.4-51.9l-16.1-16.9-16.1,16.9Z"/>
          <path class="cls-1" d="M321.5,672.2c-9.3-21.6-4.9-45.6,11.3-62.6l41.3-43.3-18.3-19.2-62.4,65.4c-14.1,14.8-17.9,35.7-9.8,54.5,7,16.3,21.3,27.3,38.3,29.9h19.5c-8.6-6-15.5-14.4-19.9-24.7h0Z"/>
          <path class="cls-1" d="M283.5,413c-8.1,18.8-4.3,39.7,9.8,54.5l62.4,65.4,18.3-19.2-41.3-43.3c-16.2-17-20.5-41-11.3-62.6,4.4-10.3,11.3-18.7,19.9-24.7h-19.5c-17,2.6-31.3,13.5-38.3,29.9Z"/>
          <path class="cls-1" d="M371.5,672.3c-9.2-21.5-4.9-45.5,11.3-62.4l16.4-17.3-18.3-19.2-41,43c-13.5,14.1-17.1,34.1-9.4,52,6.7,15.6,20.2,26,36.5,28.5h24.3c-8.5-6-15.4-14.4-19.8-24.6Z"/>
        </g>
      </g>
    </g>
  </g>
</svg>