<?xml version="1.0" encoding="UTF-8"?>
<svg xmlns="http://www.w3.org/2000/svg" version="1.1" viewBox="0 0 1080 1080">
  <defs>
    <style>
      .cls-1 {
        fill: #fc5101;
      }
    </style>
  </defs>
  <!-- Generator: Adobe Illustrator 28.7.1, SVG Export Plug-In . SVG Version: 1.2.0 Build 142)  -->
  <g>
    <g id="Layer_1">
      <g>
        <polygon class="cls-1" points="549.8 540 576.4 567.9 603 540 576.4 512.1 549.8 540"/>
        <path class="cls-1" d="M563.5,428.7c19.5-20.5,24.7-49.4,13.7-75.4-7.4-17.3-20.6-30.1-37.1-36.9-16.4,6.7-29.6,19.6-37.1,36.9-11.2,26-6,55,13.7,75.4l23.4,24.6,23.4-24.6h0Z"/>
        <polygon class="cls-1" points="513.3 578.2 539.9 606.1 566.7 578.2 539.9 550.3 513.3 578.2"/>
        <path class="cls-1" d="M590.1,347.7c13.4,31.2,7.1,66.1-16.4,90.7l-23.8,25.1,26.6,27.9,59.6-62.5c19.6-20.5,24.9-49.6,13.7-75.6-9.7-22.7-29.4-37.8-53.1-41.4h-35.3c12.4,8.7,22.4,20.9,28.8,35.8h0Z"/>
        <path class="cls-1" d="M662.6,347.8c13.5,31.4,7.1,66.3-16.4,91l-60,62.9,26.6,27.9,90.7-95.1c20.5-21.5,26-51.9,14.2-79.2-10.2-23.7-31-39.7-55.7-43.5h-28.3c12.5,8.7,22.5,20.9,28.9,35.9h0Z"/>
        <path class="cls-1" d="M430.3,353.5c-11.2,26.2-6,55.1,13.7,75.6l59.6,62.5,26.6-27.9-23.8-25.1c-23.5-24.7-29.8-59.5-16.4-90.7,6.4-14.8,16.4-27,28.8-35.8h-35.3c-23.5,3.6-43.3,18.9-53.1,41.4h0Z"/>
        <polygon class="cls-1" points="503.6 512.1 476.8 540 503.6 567.9 530.2 540 503.6 512.1"/>
        <polygon class="cls-1" points="566.7 501.8 539.9 473.9 513.3 501.8 539.9 529.7 566.7 501.8"/>
        <path class="cls-1" d="M649.5,726.5c11.2-26.2,6-55.1-13.7-75.6l-59.6-62.5-26.6,27.9,23.8,25.2c23.5,24.7,29.8,59.5,16.4,90.7-6.4,14.8-16.4,27-28.8,35.8h35.3c23.5-3.6,43.3-18.9,53.1-41.4h0Z"/>
        <path class="cls-1" d="M717.8,724.6c11.8-27.3,6.2-57.7-14.2-79.2l-90.7-95.1-26.6,27.9,60,62.9c23.5,24.7,29.8,59.6,16.4,91-6.4,15-16.4,27.2-28.9,35.9h28.3c24.7-3.8,45.5-19.6,55.7-43.5h0Z"/>
        <path class="cls-1" d="M516.5,651.3c-19.5,20.5-24.7,49.4-13.7,75.4,7.4,17.3,20.6,30.1,37.1,36.9,16.4-6.7,29.7-19.6,37.1-36.9,11.2-26,6-55-13.7-75.4l-23.4-24.6-23.4,24.6h0Z"/>
        <path class="cls-1" d="M417.4,732.2c-13.5-31.4-7.1-66.3,16.4-91l60-62.9-26.6-27.9-90.7,95.1c-20.5,21.5-26,51.9-14.2,79.2,10.2,23.7,31,39.7,55.7,43.5h28.3c-12.5-8.7-22.5-20.9-28.9-35.9h0Z"/>
        <path class="cls-1" d="M362.1,355.4c-11.8,27.3-6.2,57.7,14.2,79.2l90.7,95.1,26.6-27.9-60-62.9c-23.5-24.7-29.8-59.6-16.4-91,6.4-15,16.4-27.2,28.9-35.9h-28.3c-24.7,3.8-45.5,19.6-55.7,43.5h0Z"/>
        <path class="cls-1" d="M489.9,732.3c-13.4-31.2-7.1-66.1,16.4-90.7l23.8-25.2-26.6-27.9-59.6,62.5c-19.6,20.5-24.9,49.6-13.7,75.6,9.7,22.7,29.4,37.8,53.1,41.4h35.3c-12.4-8.7-22.4-20.9-28.8-35.8h0Z"/>
      </g>
    </g>
  </g>
</svg>